<?xml version="1.0" encoding="UTF-8" standalone="no"?>
<!-- Created with Inkscape (http://www.inkscape.org/) -->

<svg
   xmlns:dc="http://purl.org/dc/elements/1.1/"
   xmlns:cc="http://creativecommons.org/ns#"
   xmlns:rdf="http://www.w3.org/1999/02/22-rdf-syntax-ns#"
   xmlns:svg="http://www.w3.org/2000/svg"
   xmlns="http://www.w3.org/2000/svg"
   xmlns:sodipodi="http://sodipodi.sourceforge.net/DTD/sodipodi-0.dtd"
   xmlns:inkscape="http://www.inkscape.org/namespaces/inkscape"
   width="98.540001"
   height="9.9899998"
   id="svg7137"
   version="1.1"
   inkscape:version="0.48.1 "
   sodipodi:docname="Neues Dokument 3">
  <defs
     id="defs7139">
    <clipPath
       clipPathUnits="userSpaceOnUse"
       id="clipPath296">
      <path
         inkscape:connector-curvature="0"
         d="m 415.134,349.604 77.229,0 0,6.392 -77.229,0 0,-6.392 z"
         id="path298" />
    </clipPath>
  </defs>
  <sodipodi:namedview
     id="base"
     pagecolor="#ffffff"
     bordercolor="#666666"
     borderopacity="1.0"
     inkscape:pageopacity="0.0"
     inkscape:pageshadow="2"
     inkscape:zoom="9.2607819"
     inkscape:cx="49.270002"
     inkscape:cy="4.9949997"
     inkscape:document-units="px"
     inkscape:current-layer="layer1"
     showgrid="false"
     fit-margin-top="0"
     fit-margin-left="0"
     fit-margin-right="0"
     fit-margin-bottom="0"
     inkscape:window-width="1024"
     inkscape:window-height="678"
     inkscape:window-x="-4"
     inkscape:window-y="-4"
     inkscape:window-maximized="1" />
  <metadata
     id="metadata7142">
    <rdf:RDF>
      <cc:Work
         rdf:about="">
        <dc:format>image/svg+xml</dc:format>
        <dc:type
           rdf:resource="http://purl.org/dc/dcmitype/StillImage" />
        <dc:title></dc:title>
      </cc:Work>
    </rdf:RDF>
  </metadata>
  <g
     inkscape:label="Ebene 1"
     inkscape:groupmode="layer"
     id="layer1"
     transform="translate(-147.89469,-395.53214)">
    <g
       transform="matrix(1.25,0,0,-1.25,-370.02087,841.52761)"
       id="g292">
      <g
         id="g294"
         clip-path="url(#clipPath296)">
        <g
           id="g300"
           transform="translate(442.4489,349.8965)">
          <path
             inkscape:connector-curvature="0"
             d="m 0,0 -1.384,0 0,0.581 C -1.976,0.002 -2.883,-0.274 -3.699,0.029 -4.581,0.384 -5.028,1.304 -5.093,2.2 c -0.106,0.999 0.275,1.973 1.184,2.512 0.552,0.315 1.447,0.421 2.012,0.026 l 0.513,-0.381 0,1.349 -0.507,0 0,0.394 L 0,6.1 0,0 M -1.76,4.127 C -1.957,4.298 -2.265,4.435 -2.541,4.409 -2.857,4.344 -3.16,4.106 -3.318,3.817 -3.778,2.923 -3.778,1.528 -3.12,0.726 c 0.197,-0.171 0.421,-0.276 0.71,-0.25 0.421,0.053 0.776,0.474 0.894,0.868 0.234,0.892 0.348,2.043 -0.244,2.783"
             style="fill:#000000;fill-opacity:1;fill-rule:nonzero;stroke:none"
             id="path302" />
        </g>
        <g
           id="g304"
           transform="translate(469.5228,355.9963)">
          <path
             inkscape:connector-curvature="0"
             d="M 0,0 0,-2.125 C 0.789,-1.414 1.916,-0.661 2.969,-1.2 3.666,-1.634 3.567,-2.431 3.552,-3.269 3.528,-4.621 3.446,-6.111 3.446,-6.111 L 2.114,-6.1 c 0.013,1.21 0.083,2.357 -0.035,3.581 -0.066,0.25 -0.158,0.526 -0.408,0.658 C 0.974,-1.638 0.46,-2.203 0,-2.677 l 0,-3.434 -1.5,0 0,5.717 -0.547,0 0,0.394 L 0,0"
             style="fill:#000000;fill-opacity:1;fill-rule:nonzero;stroke:none"
             id="path306" />
        </g>
        <g
           id="g308"
           transform="translate(462.3613,354.48)">
          <path
             inkscape:connector-curvature="0"
             d="m 0,0 c -0.02,-0.028 -0.407,-0.547 -0.407,-0.547 -0.657,0.512 -1.71,0.886 -2.538,0.544 -0.184,-0.106 -0.302,-0.29 -0.316,-0.487 -0.013,-0.237 0.119,-0.434 0.316,-0.552 1.026,-0.474 2.631,-0.382 2.92,-1.816 0.053,-0.566 -0.198,-1.039 -0.631,-1.381 -1.013,-0.776 -2.618,-0.592 -3.736,-0.211 -0.005,0.018 0.261,0.857 0.26,0.883 0.353,-0.23 0.688,-0.353 1.016,-0.461 0.605,-0.159 1.553,-0.382 1.986,0.249 0.053,0.132 0.105,0.316 0.013,0.448 -0.499,0.67 -1.407,0.552 -2.078,0.894 -0.448,0.184 -0.925,0.511 -1.043,1.024 -0.159,0.441 -0.075,1.068 0.267,1.436 C -2.919,0.984 -1.119,0.605 0,0"
             style="fill:#000000;fill-opacity:1;fill-rule:nonzero;stroke:none"
             id="path310" />
        </g>
        <g
           id="g312"
           transform="translate(467.2345,354.3741)">
          <path
             inkscape:connector-curvature="0"
             d="m 0,0 -0.3,-0.441 c -0.412,0.584 -1.336,0.715 -1.717,0.544 -0.96,-0.606 -0.96,-1.868 -0.789,-2.894 0.118,-0.579 0.539,-1.29 1.196,-1.434 0.409,0 0.947,0.355 1.145,0.536 -0.027,0.007 0.493,-0.542 0.493,-0.542 0,0 -0.329,-0.247 -0.624,-0.31 -0.921,-0.356 -2.078,-0.21 -2.802,0.46 -0.781,0.724 -1.066,1.671 -0.881,2.684 0.157,0.868 0.973,1.684 1.814,1.921 C -1.636,0.748 -0.631,0.565 0,0"
             style="fill:#000000;fill-opacity:1;fill-rule:nonzero;stroke:none"
             id="path314" />
        </g>
        <g
           id="g316"
           transform="translate(422.0652,355.0261)">
          <path
             inkscape:connector-curvature="0"
             d="m 0,0 c 0,0 -0.331,-3.132 0.04,-4.272 0.118,-0.211 0.329,-0.342 0.592,-0.29 0.526,0.158 1,0.474 1.421,0.842 l 0,3.326 -0.79,0 0,0.394 2.289,0 0,-5.127 -1.499,0 0,0.789 c -0.29,-0.105 -0.593,-0.381 -0.908,-0.5 -0.658,-0.289 -1.552,-0.736 -2.237,-0.197 -0.499,0.645 -0.486,1.5 -0.513,2.342 -0.013,0.775 0.132,1.562 0.198,2.299 l -0.763,0 L -2.184,0 0,0"
             style="fill:#000000;fill-opacity:1;fill-rule:nonzero;stroke:none"
             id="path318" />
        </g>
        <g
           id="g320"
           transform="translate(450.505,355.0261)">
          <path
             inkscape:connector-curvature="0"
             d="m 0,0 c 0,0 -0.331,-3.132 0.039,-4.272 0.119,-0.211 0.329,-0.342 0.592,-0.29 0.527,0.158 1,0.474 1.421,0.842 l 0,3.326 -0.789,0 0,0.394 2.289,0 0,-5.127 -1.5,0 0,0.789 C 1.763,-4.443 1.46,-4.719 1.145,-4.838 0.486,-5.127 -0.408,-5.574 -1.092,-5.035 c -0.5,0.645 -0.487,1.5 -0.513,2.342 -0.013,0.775 0.131,1.562 0.197,2.299 l -0.762,0 L -2.184,0 0,0"
             style="fill:#000000;fill-opacity:1;fill-rule:nonzero;stroke:none"
             id="path322" />
        </g>
        <g
           id="g324"
           transform="translate(456.951,355.0261)">
          <path
             inkscape:connector-curvature="0"
             d="m 0,0 1.053,0 0,-0.394 -1.053,0 0.083,-4.736 -1.497,0 0.065,4.736 -1.051,0 0,0.394 1.051,0 0,0.215 c 0,0 0.359,0.133 0.675,0.279 C -0.246,0.691 0,0.872 0,0.872 L 0,0"
             style="fill:#000000;fill-opacity:1;fill-rule:nonzero;stroke:none"
             id="path326" />
        </g>
        <g
           id="g328"
           transform="translate(436.5712,349.8965)">
          <path
             inkscape:connector-curvature="0"
             d="m 0,0 -1.384,0 0,0.581 C -1.976,0.002 -2.883,-0.274 -3.699,0.029 -4.581,0.384 -5.028,1.304 -5.094,2.2 c -0.105,0.999 0.277,1.973 1.184,2.512 0.553,0.315 1.447,0.421 2.013,0.026 l 0.513,-0.381 0,1.349 -0.507,0 0,0.394 L 0,6.1 0,0 M -1.759,4.127 C -1.957,4.298 -2.266,4.435 -2.542,4.409 -2.857,4.344 -3.16,4.106 -3.318,3.817 -3.778,2.923 -3.778,1.528 -3.12,0.726 c 0.197,-0.171 0.421,-0.276 0.71,-0.25 0.421,0.053 0.776,0.474 0.894,0.868 0.234,0.892 0.348,2.043 -0.243,2.783"
             style="fill:#000000;fill-opacity:1;fill-rule:nonzero;stroke:none"
             id="path330" />
        </g>
        <g
           id="g332"
           transform="translate(478.6509,353.7274)">
          <path
             inkscape:connector-curvature="0"
             d="m 0,0 -3.091,-2.664 c 0.115,-0.328 0.368,-0.716 0.789,-0.822 0.69,-0.115 1.267,0.175 1.661,0.674 l 0.411,-0.443 c -0.697,-0.751 -1.825,-1.007 -2.799,-0.797 -0.855,0.197 -1.602,1.023 -1.838,1.865 -0.303,1.053 -0.043,2.16 0.799,2.844 0.737,0.632 1.967,0.931 2.835,0.445 C -0.839,0.891 -0.345,0.493 0,0 M -0.888,-0.033 C -1.019,0.329 -1.365,0.723 -1.792,0.839 -2.154,0.954 -2.607,0.815 -2.884,0.526 -3.607,-0.145 -3.585,-0.953 -3.354,-2.105 l 2.466,2.072 z"
             style="fill:#000000;fill-opacity:1;fill-rule:nonzero;stroke:none"
             id="path334" />
        </g>
        <g
           id="g336"
           transform="translate(448.2641,353.7274)">
          <path
             inkscape:connector-curvature="0"
             d="m 0,0 -3.092,-2.664 c 0.116,-0.328 0.369,-0.716 0.79,-0.822 0.69,-0.115 1.265,0.175 1.661,0.674 l 0.41,-0.443 c -0.697,-0.751 -1.824,-1.007 -2.798,-0.797 -0.855,0.197 -1.602,1.023 -1.839,1.865 -0.302,1.053 -0.042,2.16 0.8,2.844 0.737,0.632 1.966,0.931 2.835,0.445 C -0.839,0.891 -0.345,0.493 0,0 M -0.888,-0.033 C -1.019,0.329 -1.365,0.723 -1.792,0.839 -2.154,0.954 -2.608,0.815 -2.884,0.526 -3.607,-0.145 -3.585,-0.953 -3.355,-2.105 l 2.467,2.072 z"
             style="fill:#000000;fill-opacity:1;fill-rule:nonzero;stroke:none"
             id="path338" />
        </g>
        <g
           id="g340"
           transform="translate(486.5477,349.8965)">
          <path
             inkscape:connector-curvature="0"
             d="m 0,0 -1.383,0 0,0.581 C -1.976,0.002 -2.883,-0.274 -3.699,0.029 -4.58,0.384 -5.028,1.304 -5.093,2.2 c -0.105,0.999 0.276,1.973 1.184,2.512 0.552,0.315 1.447,0.421 2.012,0.026 l 0.514,-0.381 0,1.349 -0.508,0 0,0.394 L 0,6.1 0,0 M -1.759,4.127 C -1.956,4.298 -2.265,4.435 -2.541,4.409 -2.857,4.344 -3.16,4.106 -3.317,3.817 -3.778,2.923 -3.778,1.528 -3.12,0.726 c 0.198,-0.171 0.421,-0.276 0.711,-0.25 0.42,0.053 0.775,0.474 0.894,0.868 0.233,0.892 0.348,2.043 -0.244,2.783"
             style="fill:#000000;fill-opacity:1;fill-rule:nonzero;stroke:none"
             id="path342" />
        </g>
        <g
           id="g344"
           transform="translate(492.3629,353.7274)">
          <path
             inkscape:connector-curvature="0"
             d="m 0,0 -3.092,-2.664 c 0.116,-0.328 0.369,-0.716 0.79,-0.822 0.69,-0.115 1.266,0.175 1.661,0.674 l 0.411,-0.443 c -0.697,-0.751 -1.825,-1.007 -2.798,-0.797 -0.856,0.197 -1.602,1.023 -1.839,1.865 -0.303,1.053 -0.043,2.16 0.799,2.844 0.737,0.632 1.967,0.931 2.835,0.445 C -0.839,0.891 -0.345,0.493 0,0 M -0.888,-0.033 C -1.019,0.329 -1.365,0.723 -1.792,0.839 -2.154,0.954 -2.607,0.815 -2.884,0.526 -3.607,-0.145 -3.585,-0.953 -3.354,-2.105 l 2.466,2.072 z"
             style="fill:#000000;fill-opacity:1;fill-rule:nonzero;stroke:none"
             id="path346" />
        </g>
        <g
           id="g348"
           transform="translate(479.4377,350.3322)">
          <path
             inkscape:connector-curvature="0"
             d="M 0,0 C 0,0.383 0.31,0.693 0.693,0.693 1.076,0.693 1.386,0.383 1.386,0 1.386,-0.383 1.076,-0.693 0.693,-0.693 0.31,-0.693 0,-0.383 0,0"
             style="fill:#000000;fill-opacity:1;fill-rule:nonzero;stroke:none"
             id="path350" />
        </g>
        <g
           id="g352"
           transform="translate(431.3848,353.7274)">
          <path
             inkscape:connector-curvature="0"
             d="m 0,0 -3.092,-2.664 c 0.115,-0.328 0.369,-0.716 0.79,-0.822 0.69,-0.115 1.266,0.175 1.66,0.674 l 0.412,-0.443 c -0.697,-0.751 -1.825,-1.007 -2.799,-0.797 -0.855,0.197 -1.602,1.023 -1.839,1.865 -0.302,1.053 -0.042,2.16 0.8,2.844 0.737,0.632 1.967,0.931 2.835,0.445 C -0.839,0.891 -0.346,0.493 0,0 M -0.888,-0.033 C -1.02,0.329 -1.365,0.723 -1.792,0.839 -2.154,0.954 -2.608,0.815 -2.884,0.526 -3.607,-0.145 -3.585,-0.953 -3.354,-2.105 l 2.466,2.072 z"
             style="fill:#000000;fill-opacity:1;fill-rule:nonzero;stroke:none"
             id="path354" />
        </g>
        <g
           id="g356"
           transform="translate(419.5256,354.48)">
          <path
             inkscape:connector-curvature="0"
             d="m 0,0 c -0.02,-0.028 -0.406,-0.547 -0.406,-0.547 -0.657,0.512 -1.71,0.886 -2.539,0.544 -0.184,-0.106 -0.302,-0.29 -0.316,-0.487 -0.012,-0.237 0.119,-0.434 0.316,-0.552 1.026,-0.474 2.631,-0.382 2.921,-1.816 0.052,-0.566 -0.197,-1.039 -0.632,-1.381 -1.013,-0.776 -2.617,-0.592 -3.736,-0.211 -0.005,0.018 0.261,0.857 0.261,0.883 0.353,-0.23 0.688,-0.353 1.015,-0.461 0.606,-0.159 1.553,-0.382 1.987,0.249 0.052,0.132 0.105,0.316 0.013,0.448 -0.5,0.67 -1.408,0.552 -2.079,0.894 -0.447,0.184 -0.924,0.511 -1.043,1.024 -0.159,0.441 -0.075,1.068 0.267,1.436 C -2.918,0.984 -1.118,0.605 0,0"
             style="fill:#000000;fill-opacity:1;fill-rule:nonzero;stroke:none"
             id="path358" />
        </g>
      </g>
    </g>
  </g>
</svg>
