<?xml version="1.0" encoding="UTF-8" standalone="no"?>
<!-- Created with Inkscape (http://www.inkscape.org/) -->
<svg xmlns:svg="http://www.w3.org/2000/svg" 
   xmlns="http://www.w3.org/2000/svg" version="1.0" viewBox="0 0 708.66144 671.60352" width="708.66144" height="671.60352" id="svg16351">
   <defs id="defs16353">
      <clipPath id="clp14">
         <path d="M 157.57,291.4 L 189.36,291.4 L 189.36,315.64 L 157.57,315.64 L 157.57,291.4 z" id="path1510" />

      </clipPath>
   </defs>
   <g transform="translate(-33.034614,255.94558)" id="layer1">
      <g id="g16383">
         <g transform="matrix(28.506091,0,0,-28.506091,-4601.2006,8740.8618)" id="q37" style="font-size:8px;letter-spacing:0;word-spacing:0;fill:#ffffff;fill-rule:nonzero;stroke:none;font-family:fnt0">
            <clipPath id="clipPath16362">
               <path d="M 157.57,291.4 L 189.36,291.4 L 189.36,315.64 L 157.57,315.64 L 157.57,291.4 z" id="path16364" />

            </clipPath>

            <g clip-path="url(#clp14)" id="g1512">
               <path d="M 167.76,292.12 L 166.72,292.12 L 166.31,294.03 C 166.2,294.49 166.13,294.95 166.08,295.39 C 166.05,295.17 165.98,294.72 165.86,294.05 L 165.47,292.12 L 164.39,292.12 L 163.27,296.85 L 164.27,296.85 L 164.67,295 C 164.8,294.42 164.89,293.9 164.93,293.46 C 164.98,293.99 165.07,294.49 165.17,294.95 L 165.59,296.85 L 166.62,296.85 L 167.05,294.75 C 167.11,294.48 167.17,294.06 167.26,293.51 C 167.3,293.93 167.38,294.45 167.51,295.07 L 167.9,296.85 L 168.89,296.85 L 167.76,292.12 z M 172.21,292.97 L 172.21,292.16 L 169.47,292.16 L 169.47,296.85 L 172.14,296.85 L 172.02,296.08 L 170.42,296.08 L 170.42,294.99 L 171.76,294.99 L 171.76,294.22 L 170.43,294.22 L 170.43,292.97 L 172.21,292.97 z M 175.83,294.89 C 175.72,294.78 175.57,294.7 175.4,294.65 C 176.02,294.46 176.33,294.07 176.33,293.47 C 176.33,293.12 176.23,292.83 176.03,292.59 C 175.8,292.33 175.49,292.19 175.1,292.17 C 174.92,292.16 174.71,292.16 174.5,292.16 L 173.02,292.16 L 173.02,296.85 L 174.61,296.85 C 175.12,296.85 175.51,296.73 175.76,296.51 C 176.02,296.28 176.15,296 176.15,295.67 C 176.15,295.35 176.04,295.09 175.83,294.89 M 174.89,295.99 C 174.79,296.03 174.66,296.05 174.5,296.05 L 173.95,296.05 L 173.95,294.98 L 174.51,294.98 C 174.71,294.98 174.85,294.99 174.92,295.03 C 174.99,295.07 175.04,295.13 175.09,295.23 C 175.14,295.32 175.16,295.42 175.16,295.52 C 175.16,295.76 175.07,295.92 174.89,295.99 M 175.17,293.95 C 175.1,294.05 175.02,294.13 174.93,294.16 C 174.83,294.19 174.7,294.2 174.56,294.2 L 173.97,294.2 L 173.97,292.92 L 174.58,292.92 C 174.78,292.92 174.93,292.96 175.02,293.04 C 175.18,293.16 175.26,293.35 175.26,293.58 C 175.26,293.72 175.23,293.84 175.17,293.95 M 177.85,292.23 C 177.72,292.11 177.59,292.05 177.43,292.05 C 177.26,292.05 177.12,292.11 177,292.23 C 176.89,292.35 176.83,292.49 176.83,292.65 C 176.83,292.81 176.89,292.95 177,293.07 C 177.12,293.18 177.26,293.23 177.42,293.23 C 177.59,293.23 177.72,293.18 177.85,293.07 C 177.96,292.95 178.02,292.81 178.02,292.65 C 178.02,292.49 177.96,292.35 177.85,292.23 M 181.79,292.87 C 181.48,292.45 181.1,292.22 180.64,292.18 C 180.41,292.17 180.18,292.16 179.96,292.16 L 178.83,292.16 L 178.83,296.85 L 179.77,296.85 C 180.09,296.85 180.36,296.84 180.59,296.82 C 180.99,296.78 181.33,296.63 181.61,296.35 C 182.04,295.93 182.26,295.31 182.26,294.48 C 182.26,293.82 182.1,293.28 181.79,292.87 M 180.96,295.72 C 180.8,295.98 180.55,296.11 180.21,296.11 L 179.78,296.11 L 179.78,292.92 L 180.29,292.92 C 180.89,292.92 181.19,293.42 181.19,294.4 C 181.19,295.02 181.12,295.46 180.96,295.72 M 185.79,292.97 L 185.79,292.16 L 183.05,292.16 L 183.05,296.85 L 185.72,296.85 L 185.6,296.08 L 184,296.08 L 184,294.99 L 185.34,294.99 L 185.34,294.22 L 184.01,294.22 L 184.01,292.97 L 185.79,292.97 z" id="path1514" style="fill:#000000;fill-rule:evenodd;stroke:none" />

               <path d="M 175.4,314.8 C 182.04,314.8 187.43,311.01 187.43,306.34 C 187.43,301.67 182.04,297.88 175.4,297.88 C 168.76,297.88 163.37,301.67 163.37,306.34 C 163.37,311.01 168.76,314.8 175.4,314.8" id="path1516" style="fill:#f7f5f4;fill-rule:evenodd;stroke:none" />

               <path d="M 175.24,314.96 C 181.88,314.96 187.27,311.18 187.27,306.5 C 187.27,301.83 181.88,298.04 175.24,298.04 C 168.59,298.04 163.21,301.83 163.21,306.5 C 163.21,311.18 168.59,314.96 175.24,314.96" id="path1518" style="fill:#efeded;fill-rule:evenodd;stroke:none" />

               <path d="M 175.08,315.12 C 181.72,315.12 187.1,311.34 187.1,306.67 C 187.1,301.99 181.72,298.2 175.08,298.2 C 168.43,298.2 163.05,301.99 163.05,306.67 C 163.05,311.34 168.43,315.12 175.08,315.12" id="path1520" style="fill:#dddada;fill-rule:evenodd;stroke:none" />

               <path d="M 174.92,315.28 C 181.56,315.28 186.95,311.5 186.95,306.83 C 186.95,302.16 181.56,298.37 174.92,298.37 C 168.27,298.37 162.88,302.16 162.88,306.83 C 162.88,311.5 168.27,315.28 174.92,315.28" id="path1522" style="fill:#ada9a8;fill-rule:evenodd;stroke:none" />

               <path d="M 174.75,315.45 C 181.4,315.45 186.79,311.66 186.79,306.98 C 186.79,302.31 181.4,298.53 174.75,298.53 C 168.11,298.53 162.72,302.31 162.72,306.98 C 162.72,311.66 168.11,315.45 174.75,315.45" id="path1524" style="fill:#858482;fill-rule:evenodd;stroke:none" />

               <path d="M 163.15,301.79 C 163.67,302.28 163.97,302.23 164.43,302.39 C 164.53,302.47 164.62,302.52 164.72,302.59 C 165.4,302.57 165.25,302.72 165.72,302.87 C 166.6,302.83 166.85,303.12 167.56,303.14 C 167.97,303.19 168.75,303.33 169.1,303.39 C 169.1,303.39 169.6,303.45 170.05,303.45 C 170.33,303.46 170.93,303.52 171.12,303.52 C 171.44,303.51 171.85,303.51 172.18,303.5 C 172.63,303.55 172.93,303.55 173.35,303.55 C 173.83,303.53 174.27,303.52 174.75,303.51 C 175.28,303.46 175.6,303.46 176.14,303.41 C 176.68,303.43 177.04,303.26 177.37,303.28 C 177.63,303.29 177.99,303.17 178.17,303.15 C 178.34,303.15 178.71,303.01 179.03,302.96 C 179.56,302.96 179.81,302.89 180.35,302.8 C 180.5,302.78 181.04,302.62 181.19,302.6 C 181.39,302.6 181.82,302.4 182.16,302.35 C 182.48,302.42 183.01,302.16 183.35,302.12 C 184.65,301.94 184.59,301.77 185.14,301.7 C 185.33,301.69 185.78,301.67 185.76,301.05 C 185.7,300.81 185.04,300.88 184.69,300.88 C 184.54,300.87 184.63,301.02 184.45,301.01 C 184.2,301.01 184.24,301.05 183.99,301.27 C 183.48,301.44 183,301.43 182.4,301.63 C 182.13,301.72 181.83,301.79 181.36,301.89 C 180.53,302.04 180.06,302.14 179.23,302.28 C 178.76,302.39 178.32,302.46 178.07,302.5 C 177.27,302.62 176.85,302.64 176.12,302.73 C 175.52,302.77 174.99,302.85 174.45,302.86 C 174.27,302.88 173.86,302.86 173.67,302.88 C 172.75,302.92 172.33,302.84 171.69,302.84 C 170.92,302.84 170.2,302.86 169.36,302.71 C 169.13,302.7 168.91,302.63 168.68,302.61 C 168.44,302.53 168.07,302.48 167.75,302.48 C 167.51,302.47 167.26,302.42 166.87,302.32 C 166.03,302.25 166.31,301.96 165.9,301.82 C 165.2,301.78 164.81,301.41 164.51,301.42 C 164.18,301.43 163.49,301.08 163.27,301.3 C 163.27,301.5 163.14,301.67 163.15,301.79" id="path1526" style="fill:#ada9a8;fill-rule:evenodd;stroke:none" />

               <path d="M 163.03,301.89 C 163.54,302.37 163.83,302.33 164.3,302.48 C 164.4,302.57 164.49,302.61 164.6,302.69 C 165.27,302.67 165.12,302.82 165.59,302.97 C 166.48,302.93 166.72,303.22 167.43,303.24 C 167.84,303.28 168.62,303.42 168.97,303.49 C 168.97,303.49 169.47,303.55 169.92,303.55 C 170.2,303.55 170.8,303.62 171,303.62 C 171.31,303.6 171.72,303.61 172.05,303.59 C 172.5,303.65 172.8,303.65 173.22,303.65 C 173.7,303.63 174.14,303.62 174.62,303.6 C 175.16,303.56 175.47,303.55 176.01,303.51 C 176.55,303.53 176.91,303.36 177.25,303.38 C 177.5,303.39 177.86,303.27 178.04,303.25 C 178.21,303.25 178.58,303.11 178.9,303.05 C 179.43,303.05 179.68,302.98 180.22,302.89 C 180.37,302.88 180.91,302.71 181.06,302.7 C 181.27,302.7 181.69,302.49 182.04,302.44 C 182.35,302.52 182.88,302.26 183.22,302.22 C 184.53,302.04 184.46,301.87 185.01,301.79 C 185.2,301.79 185.65,301.76 185.63,301.15 C 185.57,300.91 184.92,300.97 184.56,300.97 C 184.41,300.96 184.5,301.12 184.32,301.11 C 184.07,301.11 184.11,301.14 183.86,301.36 C 183.35,301.53 182.87,301.53 182.27,301.73 C 182.01,301.82 181.7,301.88 181.23,301.99 C 180.4,302.14 179.93,302.23 179.1,302.38 C 178.64,302.48 178.19,302.56 177.95,302.59 C 177.14,302.71 176.72,302.73 175.99,302.83 C 175.39,302.87 174.86,302.94 174.32,302.96 C 174.14,302.97 173.72,302.96 173.54,302.97 C 172.62,303.01 172.21,302.93 171.55,302.93 C 170.79,302.93 170.07,302.96 169.23,302.81 C 169,302.8 168.79,302.72 168.55,302.71 C 168.32,302.63 167.94,302.57 167.63,302.58 C 167.39,302.57 167.13,302.52 166.74,302.42 C 165.9,302.34 166.19,302.06 165.78,301.91 C 165.07,301.88 164.68,301.51 164.38,301.52 C 164.06,301.53 163.37,301.18 163.15,301.4 C 163.15,301.6 163.01,301.77 163.03,301.89" id="path1528" style="fill:#858482;fill-rule:evenodd;stroke:none" />

               <path d="M 174.59,315.61 C 181.24,315.61 186.62,311.82 186.62,307.15 C 186.62,302.47 181.24,298.69 174.59,298.69 C 167.95,298.69 162.57,302.47 162.57,307.15 C 162.57,311.82 167.95,315.61 174.59,315.61" id="path1530" style="fill:#f9b900;fill-rule:evenodd;stroke:none" />

               <path d="M 162.93,301.99 C 163.44,302.47 163.74,302.42 164.2,302.58 C 164.31,302.66 164.39,302.71 164.5,302.79 C 165.17,302.76 165.02,302.91 165.49,303.06 C 166.38,303.02 166.62,303.31 167.34,303.34 C 167.75,303.38 168.52,303.52 168.87,303.58 C 168.87,303.58 169.38,303.64 169.83,303.64 C 170.11,303.65 170.7,303.71 170.9,303.71 C 171.22,303.7 171.63,303.7 171.95,303.69 C 172.4,303.75 172.71,303.75 173.12,303.75 C 173.6,303.73 174.04,303.71 174.52,303.7 C 175.06,303.66 175.38,303.65 175.91,303.61 C 176.46,303.63 176.81,303.46 177.15,303.47 C 177.41,303.48 177.76,303.37 177.95,303.34 C 178.12,303.34 178.49,303.2 178.81,303.15 C 179.34,303.15 179.59,303.08 180.12,302.99 C 180.28,302.97 180.81,302.81 180.97,302.8 C 181.17,302.8 181.59,302.59 181.94,302.54 C 182.26,302.62 182.79,302.35 183.12,302.31 C 184.43,302.14 184.36,301.96 184.91,301.89 C 185.1,301.88 185.56,301.86 185.53,301.24 C 185.47,301.01 184.82,301.07 184.47,301.07 C 184.31,301.06 184.4,301.21 184.22,301.2 C 183.97,301.2 184.02,301.24 183.77,301.46 C 183.25,301.63 182.77,301.62 182.17,301.82 C 181.91,301.91 181.6,301.98 181.14,302.09 C 180.31,302.23 179.83,302.33 179.01,302.47 C 178.54,302.58 178.09,302.65 177.85,302.69 C 177.04,302.81 176.63,302.83 175.9,302.93 C 175.29,302.97 174.76,303.04 174.22,303.05 C 174.04,303.07 173.63,303.05 173.45,303.07 C 172.52,303.11 172.11,303.03 171.46,303.03 C 170.69,303.03 169.98,303.06 169.14,302.91 C 168.91,302.89 168.69,302.82 168.45,302.81 C 168.22,302.72 167.84,302.67 167.53,302.68 C 167.29,302.66 167.03,302.62 166.64,302.52 C 165.8,302.44 166.09,302.16 165.68,302.01 C 164.98,301.98 164.58,301.61 164.29,301.62 C 163.96,301.62 163.27,301.28 163.05,301.49 C 163.05,301.7 162.91,301.87 162.93,301.99" id="path1532" style="fill:#000000;fill-rule:evenodd;stroke:none" />

               <path d="M 169.52,308.55 C 169.46,308.54 169.42,308.48 169.35,308.48 C 169.06,308.34 169.19,307.53 169.12,307.24 C 169.1,306.97 169.04,306.71 169.03,306.45 C 168.89,305.37 168.83,304.95 168.83,304 C 168.85,303.82 168.81,303.69 168.88,303.59 C 169.27,303.63 169.58,303.63 170.12,303.68 C 170.09,303.74 170.09,303.79 170.07,303.99 C 170.06,304.28 170.14,304.71 170.19,305.3 C 170.23,305.54 170.27,305.69 170.32,305.98 C 170.39,306.42 170.34,306.81 170.42,307.13 C 170.46,307.29 170.45,307.53 170.42,307.71 C 170.35,308.08 170.04,308.07 169.97,308.15 C 169.86,308.37 169.66,308.55 169.49,308.55 L 169.52,308.55 z" id="path1534" style="fill:#000000;fill-rule:evenodd;stroke:none" />

               <path d="M 172.25,308.55 C 171.98,308.28 172.12,307.62 172.12,307.27 C 172.12,306.76 171.98,305.7 172.07,304.76 C 172.18,304.6 172.16,304.46 172.21,304.28 C 172.28,303.95 172.85,304.05 172.82,303.76 C 172.81,303.68 173.07,303.74 173.4,303.74 C 173.41,304.03 173.42,304.09 173.37,304.18 C 173.3,304.28 173.27,304.34 173.23,304.44 C 173.19,304.89 173.21,306.17 173.22,306.11 C 173.19,306.5 173.19,306.82 173.19,307.27 C 173.22,307.31 173.28,307.37 173.28,307.46 C 173.28,307.59 173.27,307.69 173.27,307.82 C 173.35,307.9 173.4,308.26 173.4,308.4 C 173.36,308.46 173.34,308.52 173.31,308.59 C 173.12,308.79 172.83,308.78 172.65,308.57 C 172.56,308.57 172.32,308.62 172.25,308.55 C 172.25,308.55 172.25,308.56 172.25,308.55" id="path1536" style="fill:#000000;fill-rule:evenodd;stroke:none" />

               <path d="M 175.87,309.06 C 175.47,308.95 175.7,308.32 175.67,307.85 C 175.62,307.28 175.66,307.1 175.73,307.06 C 175.72,306.68 175.69,306.29 175.71,305.68 C 175.73,305.54 175.77,305.36 175.73,305.14 C 175.92,304.69 175.86,304.57 175.83,304.22 C 175.9,304.08 176.1,303.84 176.2,303.86 C 176.36,303.86 176.55,303.98 176.68,304.08 C 177.15,304.3 176.96,304.66 176.92,304.98 C 176.92,305.19 176.9,305.45 176.9,305.45 C 176.9,305.45 176.92,306.74 176.82,307.38 C 176.82,307.76 176.91,307.94 176.84,308.43 C 176.82,308.49 176.63,308.57 176.46,308.72 C 176.3,308.86 176.29,309.01 176.12,309.09 C 175.99,309.17 175.91,309.08 175.87,309.06" id="path1538" style="fill:#000000;fill-rule:evenodd;stroke:none" />

               <path d="M 178.83,308.32 C 179.22,307.79 179.08,307.55 179.08,307.14 C 179.1,306.45 179.08,306.18 179.06,305.7 C 179.08,305.44 179.11,304.49 179.11,304.46 C 179.12,304.34 179.26,304.23 179.26,304.06 C 179.26,303.74 179.19,303.49 179.32,303.26 C 179.37,303.07 179.49,303.13 179.55,303.09 C 179.7,303.09 179.91,303.16 180.01,303.26 C 180.16,303.83 180.18,304.25 180.16,304.9 C 180.14,305.37 180.21,306.77 180.15,306.94 C 180.09,307.06 180.09,307.19 180.13,307.32 C 180.09,307.53 180.07,307.75 180.03,307.9 C 180.05,308.11 180.03,308.37 179.97,308.51 C 179.88,308.6 179.78,308.71 179.71,308.77 C 179.64,308.9 179.68,308.98 179.58,309.06 C 179.24,309.14 179.16,309.11 179.04,309.06 C 178.94,308.93 178.88,308.81 178.85,308.76 C 178.82,308.56 178.76,308.48 178.83,308.32" id="path1540" style="fill:#000000;fill-rule:evenodd;stroke:none" />

               <path d="M 175,314.46 C 174.75,314.51 174.71,313.28 174.62,313.27 C 174.57,313.29 174.44,313.59 174.41,313.78 C 174.41,313.82 174.49,313.86 174.51,313.9 C 174.08,313.81 173.71,312.97 173.95,312.78 C 174.22,312.7 174.27,312.58 174.46,312.56 C 174.64,312.53 174.69,312.63 174.97,312.74 C 174.99,312.71 175.01,312.68 175.03,312.65 C 175.08,312.65 175.1,312.63 175.17,312.77 C 175.49,312.71 175.8,312.96 175.91,313.07 C 175.89,313.17 175.71,313.16 175.66,313.29 C 175.68,313.36 175.72,313.4 175.72,313.51 C 175.62,313.65 175.65,313.88 175.54,313.88 C 175.44,313.48 175.24,313.62 175.29,313.61 C 175.26,313.58 175.26,313.76 175.24,313.79 C 175.24,314.08 175.26,313.93 175.22,314.15 C 175.2,314.34 175.12,314.39 175,314.46" id="path1542" style="fill:#000000;fill-rule:evenodd;stroke:none" />

               <path d="M 179.08,312.33 C 179.51,312.33 180.1,312.14 180.42,312.13 C 180.72,312.12 180.67,311.82 180.67,311.79 C 180.72,311.44 180.64,311.43 180.48,311.36 C 180.5,311.28 180.44,311.28 180.5,311.26 C 181.08,311.12 181.01,311.27 181.29,311.13 C 181.6,311.09 181.57,310.89 181.59,310.88 C 181.6,310.7 181.75,310.42 181.29,310.38 C 181.27,310.24 181.24,310.01 181.17,309.93 C 181.11,309.73 180.54,309.87 180.16,309.96 C 179.92,309.94 179.67,309.93 179.43,309.91 C 179.24,310.1 178.91,310.01 178.65,310 C 178.5,309.99 177.78,309.91 177.25,310 C 176.7,309.95 176.62,309.96 176.07,309.91 C 175.91,309.92 175.28,309.91 175.13,309.91 C 174.97,309.9 174.71,309.88 174.56,309.87 C 174.2,309.79 173.75,309.66 173.29,309.73 C 172.99,309.66 172.77,309.56 172.46,309.56 C 172.05,309.43 172.1,309.54 171.69,309.4 C 171.54,309.35 170.81,309.2 170.64,309.19 C 170.32,309.24 170.31,309.1 169.88,308.98 C 169.8,308.96 169.45,308.84 169.21,308.71 C 168.93,308.55 168.52,308.64 168.55,309.22 C 168.85,309.53 168.87,309.39 169.01,309.49 C 169.34,309.49 169.59,309.71 169.72,309.71 C 169.9,309.71 170.06,309.78 170.06,309.8 C 169.93,309.93 169.94,309.88 169.8,309.88 C 169.65,309.88 169.47,309.72 169.27,309.69 C 169.08,309.65 168.81,309.58 168.66,309.58 C 168.49,309.49 168.3,309.45 168.1,309.54 C 168.04,309.63 168,309.79 167.95,309.88 C 167.95,310.2 168.61,310.33 168.61,310.33 C 168.69,310.36 169.32,310.56 169.32,310.56 C 169.48,310.58 170.15,310.75 170.31,310.78 C 170.55,310.77 170.72,310.65 171.11,310.78 C 171.58,310.87 171.94,310.93 172.41,310.96 C 172.93,311.05 173.33,311.08 173.86,311.11 C 174.57,311.16 175.4,311.24 176.23,311.26 C 176.62,311.27 177.8,311.27 178.29,311.28 C 178.49,311.36 179.72,311.3 180,311.33 C 180.01,311.36 179.99,311.35 179.95,311.47 C 179.73,311.54 178.55,311.53 178.55,311.64 C 178.26,311.67 178.01,311.69 177.84,311.67 C 177.54,311.73 177.21,311.81 176.59,311.67 C 176.42,311.81 176.03,311.71 175.9,311.76 C 175.47,311.76 175.31,311.68 175.01,311.7 C 174.86,311.71 174.66,311.73 174.51,311.65 C 173.78,311.77 173.65,311.65 173.52,311.62 C 172.44,311.6 171.82,311.43 171.13,311.36 C 170.71,311.22 170.39,311.08 169.88,311.04 C 169.64,311.02 169.34,310.7 168.82,310.85 C 168.67,310.85 168.6,311.24 168.66,311.36 C 168.66,311.57 169.03,311.58 169.18,311.64 C 169.76,311.85 170.55,311.94 171.15,312.05 C 171.5,312.07 172.3,312.18 172.79,312.29 C 173.14,312.32 173.38,312.29 173.68,312.37 C 174.17,312.43 174.79,312.33 175.09,312.46 C 175.5,312.44 176.12,312.42 176.44,312.47 C 177.03,312.46 177.72,312.46 178.2,312.39 L 179.08,312.33 z" id="path1544" style="fill:#000000;fill-rule:evenodd;stroke:none" />

            </g>

         </g>
      </g>
   </g>
</svg>
